<?xml version="1.0" encoding="UTF-8" standalone="no"?>
<!-- Created with Inkscape (http://www.inkscape.org/) -->

<svg
   xmlns:dc="http://purl.org/dc/elements/1.1/"
   xmlns:cc="http://creativecommons.org/ns#"
   xmlns:rdf="http://www.w3.org/1999/02/22-rdf-syntax-ns#"
   xmlns:svg="http://www.w3.org/2000/svg"
   xmlns="http://www.w3.org/2000/svg"
   xmlns:sodipodi="http://sodipodi.sourceforge.net/DTD/sodipodi-0.dtd"
   xmlns:inkscape="http://www.inkscape.org/namespaces/inkscape"
   width="105mm"
   height="148mm"
   viewBox="0 0 372.04724 524.40945"
   id="svg2"
   version="1.1"
   inkscape:version="0.91 r13725"
   sodipodi:docname="fabool_sample.svg">
  <defs
     id="defs4" />
  <sodipodi:namedview
     id="base"
     pagecolor="#ffffff"
     bordercolor="#666666"
     borderopacity="1.0"
     inkscape:pageopacity="0.0"
     inkscape:pageshadow="2"
     inkscape:zoom="1.4"
     inkscape:cx="50.912774"
     inkscape:cy="722.9171"
     inkscape:document-units="px"
     inkscape:current-layer="text4136"
     showgrid="false"
     inkscape:window-width="1920"
     inkscape:window-height="1056"
     inkscape:window-x="0"
     inkscape:window-y="24"
     inkscape:window-maximized="1"
     units="mm" />
  <metadata
     id="metadata7">
    <rdf:RDF>
      <cc:Work
         rdf:about="">
        <dc:format>image/svg+xml</dc:format>
        <dc:type
           rdf:resource="http://purl.org/dc/dcmitype/StillImage" />
        <dc:title></dc:title>
      </cc:Work>
    </rdf:RDF>
  </metadata>
  <g
     inkscape:label="レイヤー 1"
     inkscape:groupmode="layer"
     id="layer1"
     transform="translate(0,-527.95275)">
    <g
       style="font-style:normal;font-weight:normal;font-size:40px;line-height:125%;font-family:sans-serif;letter-spacing:0px;word-spacing:0px;fill:#000000;fill-opacity:1;stroke:none;stroke-width:1px;stroke-linecap:butt;stroke-linejoin:miter;stroke-opacity:1"
       id="text4136">
      <path
         d="m 52.50558,578.33877 -7.597657,-0.80079 q 0.429688,-1.99218 1.230469,-3.125 0.820313,-1.15234 2.34375,-1.99218 1.09375,-0.60547 3.007813,-0.9375 1.914062,-0.33203 4.140625,-0.33203 3.574218,0 5.742187,0.41015 2.167969,0.39063 3.613281,1.66016 1.015625,0.8789 1.601563,2.5 0.585937,1.60156 0.585937,3.0664 l 0,9.16016 q 0,1.46484 0.175782,2.30469 0.195312,0.82031 0.820312,2.10937 l -7.460937,0 q -0.449219,-0.80078 -0.585938,-1.21093 -0.136719,-0.42969 -0.273437,-1.32813 -1.5625,1.50391 -3.105469,2.14844 -2.109375,0.85937 -4.902344,0.85937 -3.710937,0 -5.644531,-1.71875 -1.914063,-1.71875 -1.914063,-4.23828 0,-2.36328 1.386719,-3.88672 1.386719,-1.52343 5.117188,-2.26562 4.472656,-0.89844 5.800781,-1.25 1.328125,-0.3711 2.8125,-0.95703 0,-1.46485 -0.605469,-2.05078 -0.605469,-0.58594 -2.128906,-0.58594 -1.953125,0 -2.929688,0.625 -0.761718,0.48828 -1.230468,1.83594 z m 6.894531,4.17968 q -1.640625,0.58594 -3.417969,1.03516 -2.421875,0.64453 -3.066406,1.26953 -0.664063,0.64453 -0.664063,1.46484 0,0.9375 0.644532,1.54297 0.664062,0.58594 1.933593,0.58594 1.328125,0 2.460938,-0.64453 1.152344,-0.64453 1.621094,-1.5625 0.488281,-0.9375 0.488281,-2.42188 l 0,-1.26953 z"
         style="font-style:normal;font-variant:normal;font-weight:normal;font-stretch:normal;font-size:40px;line-height:125%;font-family:'Arial Black';-inkscape-font-specification:'Arial Black, Normal';text-align:start;writing-mode:lr-tb;text-anchor:start"
         id="path4160"
         inkscape:connector-curvature="0" />
      <path
         d="m 70.571989,586.62002 7.89062,-0.74219 q 0.48828,1.40625 1.36719,2.01172 0.87891,0.60547 2.34375,0.60547 1.60156,0 2.48047,-0.6836 0.68359,-0.50781 0.68359,-1.26953 0,-0.85937 -0.89844,-1.32812 -0.64453,-0.33204 -3.41796,-0.82032 -4.14063,-0.72265 -5.76172,-1.32812 -1.60157,-0.625 -2.71485,-2.08985 -1.09375,-1.46484 -1.09375,-3.33984 0,-2.05078 1.19141,-3.53516 1.19141,-1.48437 3.28125,-2.20703 2.08984,-0.74218 5.60547,-0.74218 3.71094,0 5.46875,0.5664 1.77734,0.56641 2.94922,1.75781 1.1914,1.19141 1.97265,3.22266 l -7.53906,0.74219 q -0.29297,-0.9961 -0.97656,-1.46485 -0.9375,-0.625 -2.26563,-0.625 -1.34765,0 -1.97265,0.48829 -0.60547,0.46875 -0.60547,1.15234 0,0.76172 0.78125,1.15234 0.78125,0.39063 3.39844,0.70313 3.96484,0.44922 5.89843,1.25 1.9336,0.80078 2.94922,2.28515 1.03516,1.48438 1.03516,3.26172 0,1.79688 -1.09375,3.4961 -1.07422,1.69922 -3.41797,2.71484 -2.32422,0.99609 -6.34766,0.99609 -5.68359,0 -8.10547,-1.62109 -2.40234,-1.62109 -3.08593,-4.60937 z"
         style="font-style:normal;font-variant:normal;font-weight:normal;font-stretch:normal;font-size:40px;line-height:125%;font-family:'Arial Black';-inkscape-font-specification:'Arial Black, Normal';text-align:start;writing-mode:lr-tb;text-anchor:start"
         id="path4162"
         inkscape:connector-curvature="0" />
      <path
         d="m 118.28683,592.3622 -7.42187,0 0,-3.35937 q -1.66016,2.07031 -3.35938,2.94922 -1.67969,0.8789 -4.14062,0.8789 -3.28125,0 -5.156251,-1.95312 -1.85547,-1.97266 -1.85547,-6.05469 l 0,-13.20312 7.988281,0 0,11.40625 q 0,1.95312 0.72265,2.77343 0.72266,0.82032 2.03125,0.82032 1.42579,0 2.32422,-1.09375 0.91797,-1.09375 0.91797,-3.92579 l 0,-9.98046 7.94922,0 0,20.74218 z"
         style="font-style:normal;font-variant:normal;font-weight:normal;font-stretch:normal;font-size:40px;line-height:125%;font-family:'Arial Black';-inkscape-font-specification:'Arial Black, Normal';text-align:start;writing-mode:lr-tb;text-anchor:start"
         id="path4164"
         inkscape:connector-curvature="0" />
      <path
         d="m 123.15011,563.72939 8.125,0 0,14.76563 5.9375,-6.875 9.78516,0 -7.44141,7.26562 7.8711,13.47656 -8.96485,0 -4.19922,-8.32031 -2.98828,2.92969 0,5.39062 -8.125,0 0,-28.63281 z"
         style="font-style:normal;font-variant:normal;font-weight:normal;font-stretch:normal;font-size:40px;line-height:125%;font-family:'Arial Black';-inkscape-font-specification:'Arial Black, Normal';text-align:start;writing-mode:lr-tb;text-anchor:start"
         id="path4166"
         inkscape:connector-curvature="0" />
      <path
         d="m 150.16183,563.72939 7.94922,0 0,5.41016 -7.94922,0 0,-5.41016 z m 0,7.89063 7.94922,0 0,20.74218 -7.94922,0 0,-20.74218 z"
         style="font-style:normal;font-variant:normal;font-weight:normal;font-stretch:normal;font-size:40px;line-height:125%;font-family:'Arial Black';-inkscape-font-specification:'Arial Black, Normal';text-align:start;writing-mode:lr-tb;text-anchor:start"
         id="path4168"
         inkscape:connector-curvature="0" />
      <path
         d="m 170.47433,578.33877 -7.59766,-0.80079 q 0.42969,-1.99218 1.23047,-3.125 0.82032,-1.15234 2.34375,-1.99218 1.09375,-0.60547 3.00782,-0.9375 1.91406,-0.33203 4.14062,-0.33203 3.57422,0 5.74219,0.41015 2.16797,0.39063 3.61328,1.66016 1.01562,0.8789 1.60156,2.5 0.58594,1.60156 0.58594,3.0664 l 0,9.16016 q 0,1.46484 0.17578,2.30469 0.19531,0.82031 0.82031,2.10937 l -7.46093,0 q -0.44922,-0.80078 -0.58594,-1.21093 -0.13672,-0.42969 -0.27344,-1.32813 -1.5625,1.50391 -3.10547,2.14844 -2.10937,0.85937 -4.90234,0.85937 -3.71094,0 -5.64453,-1.71875 -1.91407,-1.71875 -1.91407,-4.23828 0,-2.36328 1.38672,-3.88672 1.38672,-1.52343 5.11719,-2.26562 4.47266,-0.89844 5.80078,-1.25 1.32813,-0.3711 2.8125,-0.95703 0,-1.46485 -0.60547,-2.05078 -0.60547,-0.58594 -2.1289,-0.58594 -1.95313,0 -2.92969,0.625 -0.76172,0.48828 -1.23047,1.83594 z m 6.89453,4.17968 q -1.64062,0.58594 -3.41797,1.03516 -2.42187,0.64453 -3.0664,1.26953 -0.66407,0.64453 -0.66407,1.46484 0,0.9375 0.64454,1.54297 0.66406,0.58594 1.93359,0.58594 1.32812,0 2.46094,-0.64453 1.15234,-0.64453 1.62109,-1.5625 0.48828,-0.9375 0.48828,-2.42188 l 0,-1.26953 z"
         style="font-style:normal;font-variant:normal;font-weight:normal;font-stretch:normal;font-size:40px;line-height:125%;font-family:'Arial Black';-inkscape-font-specification:'Arial Black, Normal';text-align:start;writing-mode:lr-tb;text-anchor:start"
         id="path4170"
         inkscape:connector-curvature="0" />
      <path
         d="m 197.19308,578.33877 -7.59766,-0.80079 q 0.42969,-1.99218 1.23047,-3.125 0.82032,-1.15234 2.34375,-1.99218 1.09375,-0.60547 3.00782,-0.9375 1.91406,-0.33203 4.14062,-0.33203 3.57422,0 5.74219,0.41015 2.16797,0.39063 3.61328,1.66016 1.01562,0.8789 1.60156,2.5 0.58594,1.60156 0.58594,3.0664 l 0,9.16016 q 0,1.46484 0.17578,2.30469 0.19531,0.82031 0.82031,2.10937 l -7.46093,0 q -0.44922,-0.80078 -0.58594,-1.21093 -0.13672,-0.42969 -0.27344,-1.32813 -1.5625,1.50391 -3.10547,2.14844 -2.10937,0.85937 -4.90234,0.85937 -3.71094,0 -5.64453,-1.71875 -1.91407,-1.71875 -1.91407,-4.23828 0,-2.36328 1.38672,-3.88672 1.38672,-1.52343 5.11719,-2.26562 4.47266,-0.89844 5.80078,-1.25 1.32813,-0.3711 2.8125,-0.95703 0,-1.46485 -0.60547,-2.05078 -0.60547,-0.58594 -2.1289,-0.58594 -1.95313,0 -2.92969,0.625 -0.76172,0.48828 -1.23047,1.83594 z m 6.89453,4.17968 q -1.64062,0.58594 -3.41797,1.03516 -2.42187,0.64453 -3.0664,1.26953 -0.66407,0.64453 -0.66407,1.46484 0,0.9375 0.64454,1.54297 0.66406,0.58594 1.93359,0.58594 1.32812,0 2.46094,-0.64453 1.15234,-0.64453 1.62109,-1.5625 0.48828,-0.9375 0.48828,-2.42188 l 0,-1.26953 z"
         style="font-style:normal;font-variant:normal;font-weight:normal;font-stretch:normal;font-size:40px;line-height:125%;font-family:'Arial Black';-inkscape-font-specification:'Arial Black, Normal';text-align:start;writing-mode:lr-tb;text-anchor:start"
         id="path4172"
         inkscape:connector-curvature="0" />
      <path
         d="m 223.91183,578.33877 -7.59766,-0.80079 q 0.42969,-1.99218 1.23047,-3.125 0.82032,-1.15234 2.34375,-1.99218 1.09375,-0.60547 3.00782,-0.9375 1.91406,-0.33203 4.14062,-0.33203 3.57422,0 5.74219,0.41015 2.16797,0.39063 3.61328,1.66016 1.01562,0.8789 1.60156,2.5 0.58594,1.60156 0.58594,3.0664 l 0,9.16016 q 0,1.46484 0.17578,2.30469 0.19531,0.82031 0.82031,2.10937 l -7.46093,0 q -0.44922,-0.80078 -0.58594,-1.21093 -0.13672,-0.42969 -0.27344,-1.32813 -1.5625,1.50391 -3.10547,2.14844 -2.10937,0.85937 -4.90234,0.85937 -3.71094,0 -5.64453,-1.71875 -1.91407,-1.71875 -1.91407,-4.23828 0,-2.36328 1.38672,-3.88672 1.38672,-1.52343 5.11719,-2.26562 4.47266,-0.89844 5.80078,-1.25 1.32813,-0.3711 2.8125,-0.95703 0,-1.46485 -0.60547,-2.05078 -0.60547,-0.58594 -2.1289,-0.58594 -1.95313,0 -2.92969,0.625 -0.76172,0.48828 -1.23047,1.83594 z m 6.89453,4.17968 q -1.64062,0.58594 -3.41797,1.03516 -2.42187,0.64453 -3.0664,1.26953 -0.66407,0.64453 -0.66407,1.46484 0,0.9375 0.64454,1.54297 0.66406,0.58594 1.93359,0.58594 1.32812,0 2.46094,-0.64453 1.15234,-0.64453 1.62109,-1.5625 0.48828,-0.9375 0.48828,-2.42188 l 0,-1.26953 z"
         style="font-style:normal;font-variant:normal;font-weight:normal;font-stretch:normal;font-size:40px;line-height:125%;font-family:'Arial Black';-inkscape-font-specification:'Arial Black, Normal';text-align:start;writing-mode:lr-tb;text-anchor:start"
         id="path4174"
         inkscape:connector-curvature="0" />
    </g>
  </g>
</svg>
